<svg width="213" height="52" viewBox="0 0 213 52" fill="none" xmlns="http://www.w3.org/2000/svg">
<path d="M55.1074 39.5684V26.0647H61.41C63.024 26.0647 64.2538 26.3863 65.0993 27.0293C65.9447 27.6595 66.3675 28.5083 66.3675 29.5757C66.3675 30.2959 66.2009 30.9132 65.8679 31.4276C65.5348 31.9292 65.0865 32.3215 64.5228 32.6044C63.972 32.8745 63.3699 33.0095 62.7166 33.0095L63.0625 32.315C63.8183 32.315 64.4972 32.4565 65.0993 32.7394C65.7014 33.0095 66.1753 33.4082 66.5212 33.9355C66.8799 34.4628 67.0592 35.1187 67.0592 35.9032C67.0592 37.0606 66.6173 37.9609 65.7334 38.6039C64.8495 39.2469 63.5365 39.5684 61.7943 39.5684H55.1074ZM57.6054 37.6008H61.6406C62.5757 37.6008 63.2931 37.4464 63.7926 37.1378C64.2922 36.8291 64.542 36.334 64.542 35.6524C64.542 34.9836 64.2922 34.4949 63.7926 34.1863C63.2931 33.8647 62.5757 33.704 61.6406 33.704H57.4132V31.7556H61.141C62.012 31.7556 62.6782 31.6013 63.1393 31.2926C63.6133 30.9839 63.8503 30.521 63.8503 29.9036C63.8503 29.2735 63.6133 28.8041 63.1393 28.4954C62.6782 28.1867 62.012 28.0324 61.141 28.0324H57.6054V37.6008ZM69.6866 39.5684V29.267H71.9732V32.1028L71.7042 31.2733C72.0116 30.5788 72.492 30.0515 73.1453 29.6914C73.8114 29.3313 74.6377 29.1513 75.624 29.1513V31.4469C75.5216 31.4212 75.4255 31.4083 75.3358 31.4083C75.2461 31.3955 75.1565 31.3891 75.0668 31.3891C74.1573 31.3891 73.4335 31.6591 72.8955 32.1993C72.3575 32.7266 72.0885 33.5175 72.0885 34.5721V39.5684H69.6866ZM83.4437 39.5684V37.485L83.3092 37.0413V33.3953C83.3092 32.688 83.0979 32.1414 82.6751 31.7556C82.2524 31.3569 81.6119 31.1576 80.7536 31.1576C80.1772 31.1576 79.6071 31.2476 79.0435 31.4276C78.4926 31.6077 78.0251 31.8585 77.6408 32.18L76.6992 30.4245C77.2501 30.0001 77.9034 29.685 78.6592 29.4792C79.4278 29.2606 80.222 29.1513 81.0418 29.1513C82.5278 29.1513 83.6743 29.5114 84.4813 30.2316C85.3012 30.9389 85.7111 32.0385 85.7111 33.5304V39.5684H83.4437ZM80.2156 39.7035C79.447 39.7035 78.7745 39.5749 78.198 39.3177C77.6216 39.0476 77.1732 38.6811 76.853 38.2181C76.5455 37.7422 76.3918 37.2085 76.3918 36.6169C76.3918 36.0382 76.5263 35.5173 76.7953 35.0543C77.0771 34.5914 77.5319 34.2248 78.1596 33.9548C78.7873 33.6847 79.6199 33.5496 80.6575 33.5496H83.6359V35.1508H80.8305C80.0106 35.1508 79.4598 35.2858 79.178 35.5559C78.8962 35.8131 78.7552 36.1346 78.7552 36.5205C78.7552 36.9577 78.9282 37.305 79.2741 37.5622C79.6199 37.8194 80.1003 37.948 80.7152 37.948C81.3045 37.948 81.8297 37.813 82.2908 37.5429C82.7648 37.2728 83.1043 36.8741 83.3092 36.3468L83.7127 37.7937C83.4822 38.3981 83.0658 38.8675 82.4638 39.2019C81.8745 39.5363 81.1251 39.7035 80.2156 39.7035ZM88.9858 39.5684V29.267H91.3877V39.5684H88.9858ZM90.1964 27.5694C89.748 27.5694 89.3765 27.428 89.0819 27.145C88.8001 26.8621 88.6591 26.5213 88.6591 26.1226C88.6591 25.7111 88.8001 25.3703 89.0819 25.1002C89.3765 24.8172 89.748 24.6758 90.1964 24.6758C90.6447 24.6758 91.0098 24.8108 91.2916 25.0809C91.5862 25.3381 91.7336 25.6661 91.7336 26.0647C91.7336 26.4891 91.5926 26.8492 91.3108 27.145C91.029 27.428 90.6575 27.5694 90.1964 27.5694ZM100.555 29.1513C101.374 29.1513 102.105 29.3121 102.745 29.6336C103.398 29.9551 103.911 30.4502 104.282 31.119C104.654 31.7749 104.84 32.6237 104.84 33.6654V39.5684H102.438V33.9741C102.438 33.0609 102.22 32.3793 101.784 31.9292C101.362 31.4791 100.766 31.254 99.9973 31.254C99.4337 31.254 98.9341 31.3698 98.4986 31.6013C98.063 31.8327 97.7235 32.18 97.4802 32.643C97.2496 33.0931 97.1343 33.6654 97.1343 34.3599V39.5684H94.7324V29.267H97.019V32.0449L96.6155 31.1961C96.9742 30.5403 97.493 30.0387 98.1719 29.6914C98.8637 29.3313 99.6579 29.1513 100.555 29.1513ZM119.595 39.7614C117.751 39.7614 116.303 39.2405 115.253 38.1988C114.215 37.1571 113.696 35.6524 113.696 33.6847V26.0647H116.194V33.5882C116.194 34.9772 116.489 35.9867 117.078 36.6169C117.68 37.2471 118.526 37.5622 119.615 37.5622C120.704 37.5622 121.543 37.2471 122.132 36.6169C122.721 35.9867 123.016 34.9772 123.016 33.5882V26.0647H125.475V33.6847C125.475 35.6524 124.95 37.1571 123.9 38.1988C122.862 39.2405 121.427 39.7614 119.595 39.7614ZM134.757 29.1513C135.577 29.1513 136.307 29.3121 136.948 29.6336C137.601 29.9551 138.114 30.4502 138.485 31.119C138.857 31.7749 139.042 32.6237 139.042 33.6654V39.5684H136.641V33.9741C136.641 33.0609 136.423 32.3793 135.987 31.9292C135.565 31.4791 134.969 31.254 134.2 31.254C133.637 31.254 133.137 31.3698 132.701 31.6013C132.266 31.8327 131.926 32.18 131.683 32.643C131.452 33.0931 131.337 33.6654 131.337 34.3599V39.5684H128.935V29.267H131.222V32.0449L130.818 31.1961C131.177 30.5403 131.696 30.0387 132.375 29.6914C133.067 29.3313 133.861 29.1513 134.757 29.1513ZM142.282 39.5684V29.267H144.684V39.5684H142.282ZM143.492 27.5694C143.044 27.5694 142.672 27.428 142.378 27.145C142.096 26.8621 141.955 26.5213 141.955 26.1226C141.955 25.7111 142.096 25.3703 142.378 25.1002C142.672 24.8172 143.044 24.6758 143.492 24.6758C143.941 24.6758 144.306 24.8108 144.588 25.0809C144.882 25.3381 145.029 25.6661 145.029 26.0647C145.029 26.4891 144.889 26.8492 144.607 27.145C144.325 27.428 143.953 27.5694 143.492 27.5694ZM150.757 39.5684L146.357 29.267H148.855L152.64 38.3531H151.41L155.33 29.267H157.636L153.236 39.5684H150.757ZM163.871 39.7035C162.73 39.7035 161.731 39.4784 160.873 39.0283C160.027 38.5653 159.368 37.9351 158.894 37.1378C158.433 36.3404 158.202 35.4337 158.202 34.4177C158.202 33.3889 158.426 32.4822 158.875 31.6977C159.336 30.9004 159.963 30.2766 160.758 29.8265C161.565 29.3764 162.481 29.1513 163.505 29.1513C164.505 29.1513 165.395 29.3699 166.176 29.8072C166.958 30.2445 167.573 30.8618 168.021 31.6591C168.469 32.4565 168.694 33.3953 168.694 34.4756C168.694 34.5785 168.687 34.6942 168.674 34.8229C168.674 34.9515 168.668 35.0736 168.655 35.1894H160.104V33.5882H167.387L166.445 34.0898C166.458 33.4982 166.336 32.9773 166.08 32.5272C165.824 32.0771 165.472 31.7234 165.023 31.4662C164.588 31.209 164.082 31.0804 163.505 31.0804C162.916 31.0804 162.397 31.209 161.949 31.4662C161.513 31.7234 161.168 32.0835 160.911 32.5465C160.668 32.9966 160.546 33.5304 160.546 34.1477V34.5335C160.546 35.1508 160.687 35.6974 160.969 36.1732C161.251 36.6491 161.648 37.0156 162.16 37.2728C162.673 37.53 163.262 37.6586 163.928 37.6586C164.505 37.6586 165.023 37.5686 165.485 37.3886C165.946 37.2085 166.356 36.9256 166.714 36.5398L168.002 38.0252C167.541 38.5653 166.958 38.9833 166.253 39.2791C165.561 39.562 164.767 39.7035 163.871 39.7035ZM171.193 39.5684V29.267H173.479V32.1028L173.21 31.2733C173.518 30.5788 173.998 30.0515 174.651 29.6914C175.318 29.3313 176.144 29.1513 177.13 29.1513V31.4469C177.028 31.4212 176.932 31.4083 176.842 31.4083C176.752 31.3955 176.663 31.3891 176.573 31.3891C175.663 31.3891 174.94 31.6591 174.402 32.1993C173.864 32.7266 173.595 33.5175 173.595 34.5721V39.5684H171.193ZM182.624 39.7035C181.766 39.7035 180.94 39.5942 180.146 39.3755C179.364 39.144 178.743 38.8675 178.282 38.546L179.204 36.7134C179.665 37.0092 180.216 37.2535 180.857 37.4464C181.497 37.6393 182.138 37.7358 182.778 37.7358C183.534 37.7358 184.078 37.6329 184.411 37.4271C184.757 37.2214 184.93 36.9449 184.93 36.5976C184.93 36.3147 184.815 36.1025 184.584 35.961C184.354 35.8067 184.053 35.691 183.681 35.6138C183.31 35.5366 182.893 35.4659 182.432 35.4016C181.984 35.3373 181.529 35.2537 181.068 35.1508C180.62 35.0351 180.21 34.8743 179.838 34.6685C179.467 34.4499 179.166 34.1605 178.935 33.8004C178.705 33.4403 178.589 32.9645 178.589 32.3729C178.589 31.717 178.775 31.1511 179.147 30.6753C179.518 30.1866 180.037 29.8136 180.703 29.5564C181.382 29.2863 182.183 29.1513 183.105 29.1513C183.797 29.1513 184.495 29.2285 185.199 29.3828C185.904 29.5371 186.487 29.7557 186.948 30.0387L186.026 31.8713C185.539 31.5755 185.046 31.3762 184.546 31.2733C184.059 31.1576 183.572 31.0997 183.086 31.0997C182.355 31.0997 181.811 31.209 181.452 31.4276C181.106 31.6463 180.934 31.9228 180.934 32.2572C180.934 32.5658 181.049 32.7973 181.279 32.9516C181.51 33.106 181.811 33.2281 182.183 33.3182C182.554 33.4082 182.964 33.4853 183.412 33.5496C183.873 33.6011 184.328 33.6847 184.777 33.8004C185.225 33.9162 185.635 34.0769 186.006 34.2827C186.391 34.4756 186.698 34.7521 186.929 35.1122C187.159 35.4723 187.275 35.9417 187.275 36.5205C187.275 37.1635 187.082 37.7229 186.698 38.1988C186.327 38.6746 185.795 39.0476 185.103 39.3177C184.411 39.5749 183.585 39.7035 182.624 39.7035ZM189.535 39.5684V29.267H191.937V39.5684H189.535ZM190.746 27.5694C190.297 27.5694 189.926 27.428 189.631 27.145C189.349 26.8621 189.208 26.5213 189.208 26.1226C189.208 25.7111 189.349 25.3703 189.631 25.1002C189.926 24.8172 190.297 24.6758 190.746 24.6758C191.194 24.6758 191.559 24.8108 191.841 25.0809C192.136 25.3381 192.283 25.6661 192.283 26.0647C192.283 26.4891 192.142 26.8492 191.86 27.145C191.578 27.428 191.207 27.5694 190.746 27.5694ZM199.144 39.7035C198.017 39.7035 197.146 39.4141 196.531 38.8354C195.916 38.2438 195.608 37.3757 195.608 36.2311V26.9907H198.01V36.1732C198.01 36.6619 198.132 37.0413 198.375 37.3114C198.632 37.5815 198.984 37.7165 199.432 37.7165C199.97 37.7165 200.419 37.575 200.777 37.2921L201.45 39.009C201.168 39.2405 200.822 39.4141 200.412 39.5299C200.002 39.6456 199.579 39.7035 199.144 39.7035ZM193.917 31.2733V29.3442H200.758V31.2733H193.917ZM204.275 43.4459C203.776 43.4459 203.276 43.3623 202.776 43.1952C202.277 43.028 201.86 42.7965 201.527 42.5007L202.488 40.7259C202.732 40.9445 203.007 41.1182 203.314 41.2468C203.622 41.3754 203.936 41.4397 204.256 41.4397C204.692 41.4397 205.044 41.3304 205.313 41.1117C205.582 40.8931 205.832 40.5266 206.062 40.0121L206.658 38.6618L206.85 38.3724L210.731 29.267H213.037L208.234 40.398C207.913 41.1696 207.555 41.7805 207.157 42.2306C206.773 42.6807 206.338 42.9958 205.851 43.1759C205.377 43.3559 204.852 43.4459 204.275 43.4459ZM206.389 39.935L201.758 29.267H204.256L208.022 38.1602L206.389 39.935Z" fill="white"/>
<path d="M59.0874 19.436C58.4584 19.436 57.8824 19.2903 57.3597 18.9988C56.8469 18.7073 56.4353 18.27 56.1257 17.687C55.8255 17.0942 55.6756 16.3461 55.6756 15.4424C55.6756 14.529 55.8208 13.7808 56.1112 13.1978C56.4114 12.6147 56.8179 12.1823 57.3307 11.9005C57.8435 11.609 58.4294 11.4633 59.0874 11.4633C59.8522 11.4633 60.5247 11.6285 61.1054 11.9588C61.696 12.2892 62.1605 12.7508 62.4991 13.3435C62.8476 13.9363 63.0218 14.6359 63.0218 15.4424C63.0218 16.2489 62.8476 16.9534 62.4991 17.5558C62.1605 18.1486 61.696 18.6101 61.1054 18.9405C60.5247 19.2709 59.8522 19.436 59.0874 19.436ZM54.79 22.1616V11.5507H56.5177V13.3872L56.4596 15.4569L56.6048 17.5267V22.1616H54.79ZM58.8841 17.8765C59.3197 17.8765 59.707 17.7793 60.0456 17.585C60.394 17.3906 60.6699 17.1088 60.8731 16.7396C61.0764 16.3704 61.178 15.9379 61.178 15.4424C61.178 14.9371 61.0764 14.5047 60.8731 14.1452C60.6699 13.7759 60.394 13.4941 60.0456 13.2998C59.707 13.1055 59.3197 13.0083 58.8841 13.0083C58.4486 13.0083 58.0566 13.1055 57.7082 13.2998C57.3597 13.4941 57.0839 13.7759 56.8806 14.1452C56.6774 14.5047 56.5758 14.9371 56.5758 15.4424C56.5758 15.9379 56.6774 16.3704 56.8806 16.7396C57.0839 17.1088 57.3597 17.3906 57.7082 17.585C58.0566 17.7793 58.4486 17.8765 58.8841 17.8765ZM64.8882 19.334V11.5507H66.6159V13.6933L66.4126 13.0666C66.6449 12.5419 67.0079 12.1435 67.5015 11.8714C68.0045 11.5993 68.6288 11.4633 69.3743 11.4633V13.1978C69.2966 13.1783 69.224 13.1686 69.1565 13.1686C69.0886 13.1589 69.0208 13.154 68.9533 13.154C68.2658 13.154 67.7192 13.3581 67.3127 13.7662C66.9062 14.1646 66.703 14.7622 66.703 15.559V19.334H64.8882ZM74.4723 19.436C73.6785 19.436 72.9722 19.266 72.3527 18.9259C71.7331 18.5761 71.2446 18.0999 70.8863 17.4975C70.5281 16.8951 70.3492 16.21 70.3492 15.4424C70.3492 14.665 70.5281 13.98 70.8863 13.3872C71.2446 12.7848 71.7331 12.3135 72.3527 11.9734C72.9722 11.6333 73.6785 11.4633 74.4723 11.4633C75.2755 11.4633 75.9869 11.6333 76.6065 11.9734C77.2354 12.3135 77.7243 12.7799 78.0728 13.3727C78.431 13.9654 78.6099 14.6553 78.6099 15.4424C78.6099 16.21 78.431 16.8951 78.0728 17.4975C77.7243 18.0999 77.2354 18.5761 76.6065 18.9259C75.9869 19.266 75.2755 19.436 74.4723 19.436ZM74.4723 17.8765C74.9177 17.8765 75.3143 17.7793 75.6628 17.585C76.0112 17.3906 76.2824 17.1088 76.4758 16.7396C76.679 16.3704 76.7807 15.9379 76.7807 15.4424C76.7807 14.9371 76.679 14.5047 76.4758 14.1452C76.2824 13.7759 76.0112 13.4941 75.6628 13.2998C75.3143 13.1055 74.9224 13.0083 74.4868 13.0083C74.0414 13.0083 73.6448 13.1055 73.2963 13.2998C72.9577 13.4941 72.6866 13.7759 72.4833 14.1452C72.2801 14.5047 72.1784 14.9371 72.1784 15.4424C72.1784 15.9379 72.2801 16.3704 72.4833 16.7396C72.6866 17.1088 72.9577 17.3906 73.2963 17.585C73.6448 17.7793 74.0367 17.8765 74.4723 17.8765ZM83.7716 19.436C83.0264 19.436 82.3535 19.2709 81.7535 18.9405C81.163 18.6004 80.6984 18.134 80.3598 17.5412C80.0212 16.9485 79.8517 16.2489 79.8517 15.4424C79.8517 14.6359 80.0212 13.9363 80.3598 13.3435C80.6984 12.7508 81.163 12.2892 81.7535 11.9588C82.3535 11.6285 83.0264 11.4633 83.7716 11.4633C84.4202 11.4633 85.0009 11.609 85.5137 11.9005C86.0266 12.1823 86.4331 12.6147 86.7332 13.1978C87.0334 13.7808 87.1833 14.529 87.1833 15.4424C87.1833 16.3461 87.0381 17.0942 86.7478 17.687C86.4574 18.27 86.0556 18.7073 85.5428 18.9988C85.0299 19.2903 84.4394 19.436 83.7716 19.436ZM83.9893 17.8765C84.4249 17.8765 84.8122 17.7793 85.1508 17.585C85.4992 17.3906 85.7751 17.1088 85.9783 16.7396C86.1914 16.3704 86.2977 15.9379 86.2977 15.4424C86.2977 14.9371 86.1914 14.5047 85.9783 14.1452C85.7751 13.7759 85.4992 13.4941 85.1508 13.2998C84.8122 13.1055 84.4249 13.0083 83.9893 13.0083C83.5538 13.0083 83.1618 13.1055 82.8134 13.2998C82.4747 13.4941 82.1989 13.7759 81.9858 14.1452C81.7826 14.5047 81.681 14.9371 81.681 15.4424C81.681 15.9379 81.7826 16.3704 81.9858 16.7396C82.1989 17.1088 82.4747 17.3906 82.8134 17.585C83.1618 17.7793 83.5538 17.8765 83.9893 17.8765ZM86.3413 19.334V17.4975L86.4138 15.4278L86.2687 13.3581V8.51904H88.0689V19.334H86.3413ZM91.1835 19.436C90.8542 19.436 90.5737 19.3243 90.3414 19.1008C90.1091 18.8676 89.993 18.5761 89.993 18.2263C89.993 17.8571 90.1091 17.5655 90.3414 17.3518C90.5737 17.1283 90.8542 17.0165 91.1835 17.0165C91.5123 17.0165 91.7932 17.1283 92.0255 17.3518C92.2578 17.5655 92.374 17.8571 92.374 18.2263C92.374 18.5761 92.2578 18.8676 92.0255 19.1008C91.7932 19.3243 91.5123 19.436 91.1835 19.436ZM102.747 19.436C102.089 19.436 101.503 19.2903 100.99 18.9988C100.478 18.7073 100.071 18.27 99.7709 17.687C99.4806 17.0942 99.3354 16.3461 99.3354 15.4424C99.3354 14.529 99.4852 13.7808 99.7854 13.1978C100.095 12.6147 100.507 12.1823 101.019 11.9005C101.542 11.609 102.118 11.4633 102.747 11.4633C103.512 11.4633 104.184 11.6285 104.765 11.9588C105.356 12.2892 105.82 12.7508 106.159 13.3435C106.507 13.9363 106.682 14.6359 106.682 15.4424C106.682 16.2489 106.507 16.9485 106.159 17.5412C105.82 18.134 105.356 18.6004 104.765 18.9405C104.184 19.2709 103.512 19.436 102.747 19.436ZM98.4498 19.334V8.51904H100.265V13.3581L100.119 15.4278L100.177 17.4975V19.334H98.4498ZM102.544 17.8765C102.979 17.8765 103.367 17.7793 103.705 17.585C104.054 17.3906 104.33 17.1088 104.533 16.7396C104.736 16.3704 104.838 15.9379 104.838 15.4424C104.838 14.9371 104.736 14.5047 104.533 14.1452C104.33 13.7759 104.054 13.4941 103.705 13.2998C103.367 13.1055 102.979 13.0083 102.544 13.0083C102.108 13.0083 101.716 13.1055 101.368 13.2998C101.019 13.4941 100.744 13.7759 100.54 14.1452C100.337 14.5047 100.235 14.9371 100.235 15.4424C100.235 15.9379 100.337 16.3704 100.54 16.7396C100.744 17.1088 101.019 17.3906 101.368 17.585C101.716 17.7793 102.108 17.8765 102.544 17.8765ZM108.974 22.2637C108.597 22.2637 108.219 22.2005 107.842 22.0742C107.464 21.9479 107.15 21.773 106.898 21.5495L107.624 20.2085C107.808 20.3737 108.016 20.5049 108.248 20.6021C108.48 20.6993 108.717 20.7478 108.96 20.7478C109.288 20.7478 109.555 20.6652 109.758 20.5C109.961 20.3349 110.15 20.0579 110.324 19.6692L110.774 18.649L110.92 18.4303L113.852 11.5507H115.594L111.965 19.9608C111.723 20.5438 111.452 21.0053 111.152 21.3454C110.861 21.6855 110.532 21.9236 110.165 22.0596C109.806 22.1956 109.41 22.2637 108.974 22.2637ZM110.571 19.6109L107.072 11.5507H108.96L111.805 18.27L110.571 19.6109Z" fill="url(#paint0_linear_364_953)"/>
<path d="M35.3729 40.2945C35.0399 40.5822 34.8844 41.021 34.9548 41.4573L36.1045 48.2535L29.5517 44.2898C29.2406 44.102 28.8614 44.0583 28.5163 44.1728C26.55 44.8141 24.4889 45.1382 22.3888 45.1382C11.7478 45.1382 3.03186 36.7113 2.52631 26.1636H2.75235H2.75478H42.2538C41.9889 31.6069 39.5146 36.7113 35.3729 40.2945ZM3.75131 16.9128C4.41244 16.1401 5.24125 15.5819 6.21345 15.2528C8.23813 14.5678 10.5155 15.0066 11.7527 15.5721C10.5277 17.7465 10.5715 20.2109 10.5763 20.3401C10.5933 21.0349 11.1694 21.5833 11.8621 21.5638C12.5523 21.5443 13.0968 20.9617 13.0822 20.2768C13.0822 20.2329 13.0506 17.5003 14.5819 15.9329C15.3183 15.1797 16.2978 14.814 17.5812 14.814C18.2739 14.814 18.8353 14.2509 18.8353 13.5562C18.8353 12.8615 18.2739 12.2984 17.5812 12.2984C15.9381 12.2984 14.543 12.7396 13.4201 13.6123C12.02 12.7932 9.48502 12.1058 6.91105 12.5056C6.86485 10.7017 7.43118 9.23185 8.60514 8.13004C11.7989 5.12201 16.0767 6.32375 16.2566 6.37738C16.869 6.55533 17.5229 6.24578 17.7684 5.65341C17.8145 5.54616 18.9885 2.87209 21.7204 2.53814C23.1278 2.36506 24.6614 3.07198 25.8329 4.05434C24.7927 4.65885 24.1291 5.27561 24.0878 5.31458C23.5823 5.78991 23.558 6.58461 24.0319 7.09162C24.5059 7.59863 25.2982 7.62303 25.8038 7.15014C25.8111 7.14281 26.8999 6.14096 28.3534 5.64853C29.6246 5.21465 30.7184 5.3024 31.7052 5.91667C33.5913 7.09162 34.9184 9.17823 35.6573 12.1253C34.86 12.3228 34.143 12.5909 33.5524 12.8566C32.692 12.4227 31.8462 12.2277 31.2409 12.1887C30.5482 12.1424 29.9527 12.6689 29.9065 13.3612C29.8555 14.0535 30.3805 14.6483 31.0684 14.697C31.2191 14.7092 31.9579 14.7945 32.7236 15.2528C32.7916 15.3064 32.8646 15.3527 32.9399 15.3917C33.5816 15.8378 34.2062 16.5691 34.4785 17.7635C34.634 18.4412 35.3073 18.8629 35.983 18.7069C36.5639 18.5729 36.9552 18.0561 36.9552 17.4832C36.9552 17.3906 36.9455 17.2955 36.9236 17.2005C36.6927 16.1888 36.2843 15.3674 35.7812 14.7019C36.2454 14.5605 36.7583 14.4411 37.2882 14.385C38.2045 14.2899 39.0309 14.3996 39.7406 14.7141C41.0482 15.2918 42.0496 16.5764 42.3583 18.0731C42.6233 19.3553 42.5017 21.3395 40.5451 23.6504H25.1232C25.3104 22.8704 25.393 22.1196 25.393 21.4102C25.393 17.9927 23.5725 15.5356 23.468 15.3966C23.0499 14.8433 22.2625 14.736 21.7107 15.1553C21.159 15.5746 21.052 16.3619 21.4676 16.9128C21.5722 17.0542 23.7184 20.0159 22.5152 23.648H3.55687C2.80583 21.7052 2.13013 18.8093 3.75131 16.9128ZM44.7841 25.1886C44.7841 25.0764 44.7841 24.9619 44.779 24.8546C44.7547 24.2111 44.2491 23.6943 43.6176 23.648C44.507 22.161 44.9665 20.6083 44.9665 19.0799C44.9665 18.568 44.9152 18.061 44.8106 17.5588C44.3417 15.2796 42.7836 13.3051 40.7469 12.4081C39.9521 12.0571 39.0868 11.8694 38.1632 11.8401C37.2833 8.06668 35.5576 5.35603 33.025 3.77889C31.6395 2.91841 30.0524 2.66489 28.3923 3.03053C26.7322 1.21938 24.1024 -0.287079 21.4166 0.0420003C18.444 0.405207 16.7281 2.49425 15.9527 3.74476C14.1079 3.44249 10.1169 3.25236 6.88675 6.29452C4.63115 8.41524 4.25444 11.1039 4.44404 13.2661C3.44992 13.7488 2.57735 14.4216 1.84575 15.2747C-0.332028 17.8294 0.103038 21.203 0.914843 23.6919C0.404427 23.8357 0.0228347 24.2964 0.000959615 24.8522C-0.0039015 24.9619 -0.00390625 25.074 -0.00390625 25.1886C-0.00390625 37.5742 10.0416 47.649 22.3913 47.649C24.5593 47.649 26.6909 47.3395 28.7399 46.7325L37.1521 51.8197C37.5725 52.0731 38.1 52.0585 38.5059 51.7833C38.9118 51.5076 39.1184 51.0176 39.0357 50.5328L37.5458 41.7206C42.1566 37.4742 44.7841 31.4898 44.7841 25.1886Z" fill="white"/>
<path d="M12.6328 33.5542C12.6328 32.3452 13.6099 31.3652 14.813 31.3652C16.0186 31.3652 16.9932 32.3452 16.9932 33.5542C16.9932 34.7608 16.0162 35.7408 14.813 35.7408C13.6075 35.7408 12.6328 34.7608 12.6328 33.5542Z" fill="white"/>
<path d="M20.5225 33.5542C20.5225 32.3452 21.4995 31.3652 22.7051 31.3652C23.9106 31.3652 24.8853 32.3452 24.8853 33.5542C24.8853 34.7608 23.9082 35.7408 22.7051 35.7408C21.4995 35.7408 20.5225 34.7608 20.5225 33.5542Z" fill="white"/>
<path d="M28.4121 33.5542C28.4121 32.3452 29.3892 31.3652 30.5947 31.3652C31.8003 31.3652 32.775 32.3452 32.775 33.5542C32.775 34.7608 31.7979 35.7408 30.5947 35.7408C29.3892 35.7408 28.4121 34.7608 28.4121 33.5542Z" fill="white"/>
<defs>
<linearGradient id="paint0_linear_364_953" x1="54.79" y1="8.51904" x2="112.914" y2="29.6402" gradientUnits="userSpaceOnUse">
<stop stop-color="#FE6A51"/>
<stop offset="1" stop-color="#FFD58C"/>
</linearGradient>
</defs>
</svg>
